<?xml version="1.0" encoding="utf-8"?>
<!-- Generator: Adobe Illustrator 25.0.1, SVG Export Plug-In . SVG Version: 6.00 Build 0)  -->
<svg version="1.1" id="Layer_1" xmlns="http://www.w3.org/2000/svg" xmlns:xlink="http://www.w3.org/1999/xlink" x="0px" y="0px"
	 viewBox="0 0 288 288" style="enable-background:new 0 0 288 288;" xml:space="preserve">
<style type="text/css">
	.st0{fill:#36333E;}
	.st1{fill:#FFFFFF;}
</style>
<g id="Layer_2_1_">
</g>
<circle class="st0" cx="144" cy="134.9" r="102.5"/>
<path class="st1" d="M118.1,159.8h75.3v17.5H88l20-35L86.3,90.1H73.8V72.7H98l6.5,15.6h102.6l-26.7,59.5h-55.5L118.1,159.8z
	 M113.7,181.1c-7.6,0-13.7,6.2-13.7,13.7c0,7.6,6.2,13.7,13.7,13.7s13.7-6.2,13.7-13.7C127.4,187.2,121.3,181.1,113.7,181.1z
	 M179.6,181.1c-7.6,0-13.7,6.2-13.7,13.7c0,7.6,6.2,13.7,13.7,13.7c7.6,0,13.7-6.2,13.7-13.7C193.4,187.2,187.2,181.1,179.6,181.1z"
	/>
</svg>
