<svg width="1500" height="4751" viewBox="0 0 1500 4751" fill="none" xmlns="http://www.w3.org/2000/svg">
<path d="M0 2638.76L214 2197.26L145.5 2850.76L351.5 3352.26L322.5 3687.76L416 3316.26L258.5 2638.76L759.5 1269.76L660 468.262L869 1174.76L707 2379.26L908.5 2815.26L880.5 3243.26L1005.5 2767.26L1037.5 1740.26L1230 2638.76V3283.76L1030 3740.26L1147 4030.76L1078.5 3740.26L1324.5 3283.76L1354.5 2977.26L1500 2570.76V4751.26H0V2638.76Z" fill="#EE7642"/>
<path d="M251.565 1385.65L251.023 1157.32L387.716 1424.8L342.479 1568.14L190.138 1664.68L203.721 1551.49L172.545 1455.09L251.565 1385.65Z" fill="#EE7642"/>
<path d="M1332.32 1578.26L1358.22 1771.53L1336.69 1915.17L1261.22 1824.89L1332.32 1578.26Z" fill="#EE7642"/>
<path d="M969.193 310.262L1058 447.329L969.193 517.262L941 398.377L969.193 310.262Z" fill="#EE7642"/>
<path d="M183.852 2132.67L107.699 2055.27L146.264 1994.7L184.126 2069.5L183.852 2132.67Z" fill="#EE7642"/>
<path d="M651.402 0L671.432 111.647L644.694 154.485L627.193 56.9287L651.402 0Z" fill="#EE7642"/>
<path d="M1292.72 1025.98L1194.19 1133.7L1135.97 1055.5L1157.17 920.42L1265.53 748.262L1292.72 1025.98Z" fill="#EE7642"/>
<path d="M349.828 586.155L331.358 726.527L276.383 804.287L254.021 678.718L349.828 586.155Z" fill="#EE7642"/>
<path d="M911 2304.26V2474.61L845.568 2544.26L800 2369.2L911 2304.26Z" fill="#EE7642"/>
<path d="M1043.1 1355.26L1094.91 1442.82L1018.28 1511.7L1035.76 1447.03L1043.1 1355.26Z" fill="#EE7642"/>
<path d="M1228 2081.41L1446.04 2340.83L1314.35 2605.38L1288.09 2335.5L1228 2081.41Z" fill="#EE7642"/>
</svg>
